<?xml version="1.0" encoding="UTF-8" standalone="no"?><!DOCTYPE svg PUBLIC "-//W3C//DTD SVG 1.1//EN" "http://www.w3.org/Graphics/SVG/1.1/DTD/svg11.dtd"><svg width="100%" height="100%" viewBox="0 0 1024 277" version="1.1" xmlns="http://www.w3.org/2000/svg" xmlns:xlink="http://www.w3.org/1999/xlink" xml:space="preserve" xmlns:serif="http://www.serif.com/" style="fill-rule:evenodd;clip-rule:evenodd;stroke-linejoin:round;stroke-miterlimit:2;"><path d="M1019.44,4.394l-36.443,-0l-6,3.606l-22.653,34l-4.347,16l-4,-10l0,-38l-5,-5.606l-34,-0l-4.615,5.606l0,227.407l38.615,0l5,-8.407l0,-44l12,-30l6,-0l11,27l0,54l39,1.235l5.443,-6.947l0,-55.288l-0.443,-11l-21.417,-47.798l21.86,-52.23l0,-59.578Z" style="fill:#816932;"/><path d="M145,5.068l-38,-0.06l-4.685,5.331l0,74.148l-38.315,-76.487l-6,-2.932l-27.059,0l-27.945,44.932l24.004,187l38,0l6,-7l-0,-25l9,-3.107l3.128,69.718l32.405,-0.611l26.467,-36l3,-6.52l-0,-223.412Z" style="fill:#b74513;"/><path d="M305.964,14.5c-0.315,-4.093 -2.153,-7.361 -6.074,-9.5l-33.89,-0l-3.166,4.5l-4.058,161.873c-7.081,6.326 -13.784,7.752 -24.776,-0l-1.74,-5.373l-0,-156l-5.26,-5l-34,0l-5,4l-18.97,26l-0,197.537l34.704,34.686l50.665,-0l19.281,-28.81c23.505,-12.995 30.095,-29.579 31.613,-47.238l0.671,-176.675Z" style="fill:#b3704d;"/><path d="M451,5l-106,-1l-5,8l0,88l20,-0l-1.507,135.618l54.158,0c4.829,0.799 6.733,-1.744 8.349,-4.618l-0,-162l30,-0l4.306,-9l-0.306,-49l-4,-6Z" style="fill:#f47740;"/><path d="M571.383,161.568l3.313,-6.568l-0,-48l-2.696,-8l-37,-0.5l-0.438,-31l49.438,0c3.388,-0.883 4.882,-2.632 6,-7.5l0,-43c-0.239,-7.002 -2.293,-11.153 -6,-12.707l-91,1.363l-23,33.344l-0,197l59,0.5l5.562,-5.547l0.438,-69.129l36.383,-0.256Z" style="fill:#f4b440;"/><path d="M670,149.528l1,-133.528l-4.093,-11.794l-36.907,-0l-24.307,31.181l-0,228.179l108.076,-0l20.731,-28.566l2.5,-7l-0,-109l-3,-8l-35,-0l-29,38.528Z" style="fill:#a65959;"/><path d="M868.077,11c-1.465,-4.012 -3.851,-5.95 -7.077,-6l-85,0l-26,39l-0.243,54l36.537,4.119l-1.294,50.911l-10,20.97l-6.687,16l1.687,46l94,-0l4,-6.494l0,-51.158l-5,-5.898l-20,0l0,-101.282l14.917,-0c8.187,-1.626 12.156,-8.238 10.656,-21.312l-0.496,-38.856Z" style="fill:#f6ca63;"/><g><path d="M53.429,37.152l69.375,131.417l0,-133.956l1.885,-0l0,171.413l-1.885,-0l0,-32.696l-71.26,-134.59c-0.126,-0.212 -0.283,-0.424 -0.471,-0.635c-0.189,-0.212 -0.346,-0.318 -0.472,-0.318c-0.125,0 -0.22,0.106 -0.282,0.318c-0.063,0.211 -0.095,0.423 -0.095,0.635l0,167.286l-1.885,-0l0,-167.921c0,-1.27 0.252,-2.222 0.754,-2.857c0.503,-0.635 1.006,-0.952 1.508,-0.952c0.503,-0 0.943,0.211 1.32,0.634c0.377,0.424 0.88,1.164 1.508,2.222Zm10.18,197.442c2.388,0 4.116,-0.899 5.184,-2.698c1.069,-1.799 1.603,-4.708 1.603,-8.729l-0,-104.752l32.237,65.708l-0,39.044c-0,4.021 0.534,6.93 1.602,8.729c1.068,1.799 2.796,2.698 5.184,2.698l28.278,0c2.388,0 4.116,-0.899 5.184,-2.698c1.069,-1.799 1.603,-4.708 1.603,-8.729l-0,-205.695c-0,-4.021 -0.534,-6.931 -1.603,-8.73c-1.068,-1.798 -2.796,-2.698 -5.184,-2.698l-28.278,0c-2.388,0 -4.116,0.9 -5.184,2.698c-1.068,1.799 -1.602,4.709 -1.602,8.73l-0,67.612l-36.573,-70.469c-1.634,-3.175 -3.299,-5.397 -4.996,-6.666c-1.696,-1.27 -3.739,-1.905 -6.127,-1.905l-19.606,0c-2.388,0 -4.116,0.9 -5.184,2.698c-1.068,1.799 -1.602,4.709 -1.602,8.73l-0,205.695c-0,4.021 0.534,6.93 1.602,8.729c1.068,1.799 2.796,2.698 5.184,2.698l28.278,0Zm6.033,0.318l-24.508,34.282c-0.502,0.847 -1.288,1.588 -2.356,2.222c-1.068,0.635 -2.231,0.953 -3.488,0.953l-28.278,-0c-3.016,-0 -5.215,-1.164 -6.598,-3.492c-1.382,-2.328 -2.073,-6.031 -2.073,-11.11l-0,-205.695c-0,-2.751 0.22,-5.079 0.659,-6.984c0.44,-1.904 1.1,-3.492 1.98,-4.761l24.319,-34.6c0.628,-0.847 1.476,-1.535 2.545,-2.064c1.068,-0.529 2.231,-0.793 3.487,-0.793l19.606,-0c2.765,-0 5.09,0.741 6.976,2.222c1.885,1.481 3.77,3.915 5.655,7.301l13.008,25.394l22.811,-32.06c0.628,-0.847 1.476,-1.535 2.545,-2.064c1.068,-0.529 2.23,-0.793 3.487,-0.793l28.278,-0c3.016,-0 5.216,1.164 6.598,3.492c1.383,2.327 2.074,6.031 2.074,11.11l-0,205.695c-0,2.751 -0.22,5.079 -0.66,6.983c-0.44,1.905 -1.1,3.492 -1.979,4.762l-24.508,34.282c-0.502,0.847 -1.288,1.588 -2.356,2.222c-1.069,0.635 -2.231,0.953 -3.488,0.953l-28.278,-0c-3.016,-0 -5.215,-1.164 -6.598,-3.492c-1.382,-2.328 -2.074,-6.031 -2.074,-11.11l0,-37.774l-4.147,-8.571l0,11.745c0,2.751 -0.22,5.079 -0.66,6.983c-0.44,1.905 -1.099,3.492 -1.979,4.762Z" style="fill-rule:nonzero;"/><path d="M222.342,277.13c-12.191,0 -22.214,-2.169 -30.069,-6.507c-7.855,-4.338 -13.982,-10.105 -18.38,-17.3c-4.399,-7.195 -7.447,-15.448 -9.143,-24.76c-1.697,-9.311 -2.545,-18.94 -2.545,-28.886l-0,-147.605c-0,-2.751 0.219,-5.079 0.659,-6.984c0.44,-1.904 1.1,-3.492 1.98,-4.761l24.319,-34.6c0.628,-0.847 1.476,-1.535 2.545,-2.064c1.068,-0.529 2.231,-0.793 3.487,-0.793l29.598,-0c3.016,-0 5.215,1.164 6.598,3.492c1.382,2.327 2.074,6.031 2.074,11.11l-0,144.748c-0,1.905 0.188,3.651 0.565,5.238c0.377,1.587 1.194,2.804 2.451,3.65l-0,-119.036c-0,-2.751 0.188,-5.079 0.565,-6.984c0.378,-1.904 0.943,-3.386 1.697,-4.444l0.189,-0.317l24.507,-34.6c0.629,-0.847 1.445,-1.535 2.451,-2.064c1.005,-0.529 2.199,-0.793 3.582,-0.793l28.655,-0c3.016,-0 5.215,1.164 6.598,3.492c1.382,2.327 2.073,6.031 2.073,11.11l0,157.128c0,9.735 -0.816,18.728 -2.45,26.982c-1.634,8.253 -4.588,15.342 -8.861,21.267l-24.507,34.283c-4.399,6.349 -10.494,11.269 -18.286,14.761c-7.793,3.491 -17.91,5.237 -30.352,5.237Zm82.571,-102.53l0,-157.128c0,-4.021 -0.534,-6.931 -1.602,-8.73c-1.068,-1.798 -2.797,-2.698 -5.184,-2.698l-28.655,0c-2.388,0 -4.116,0.9 -5.185,2.698c-1.068,1.799 -1.602,4.709 -1.602,8.73l0,144.748c0,4.233 -0.943,7.777 -2.828,10.634c-1.885,2.857 -6.158,4.285 -12.819,4.285c-6.535,0 -10.746,-1.428 -12.631,-4.285c-1.885,-2.857 -2.828,-6.401 -2.828,-10.634l0,-144.748c0,-4.021 -0.534,-6.931 -1.602,-8.73c-1.068,-1.798 -2.796,-2.698 -5.184,-2.698l-29.598,0c-2.388,0 -4.116,0.9 -5.184,2.698c-1.068,1.799 -1.602,4.709 -1.602,8.73l-0,157.128c-0,9.735 0.848,18.57 2.545,26.505c1.696,7.936 4.713,14.708 9.049,20.316c4.335,5.608 10.274,9.999 17.815,13.173c7.54,3.175 17.155,4.762 28.843,4.762c11.688,-0 21.303,-1.587 28.843,-4.762c7.541,-3.174 13.479,-7.565 17.815,-13.173c4.336,-5.608 7.353,-12.38 9.049,-20.316c1.697,-7.935 2.545,-16.77 2.545,-26.505Zm-95.767,-139.987l1.885,-0l-0,132.369c-0,11.85 2.482,21.426 7.446,28.727c4.965,7.301 14.422,10.951 28.372,10.951c13.951,0 23.44,-3.65 28.467,-10.951c5.027,-7.301 7.541,-16.877 7.541,-28.727l-0,-132.369l1.885,-0l-0,132.369c-0,12.697 -2.64,23.013 -7.918,30.949c-5.279,7.936 -15.27,11.904 -29.975,11.904c-14.704,-0 -24.664,-3.968 -29.88,-11.904c-5.215,-7.936 -7.823,-18.252 -7.823,-30.949l-0,-132.369Z" style="fill-rule:nonzero;"/><path d="M388.616,272.369l-30.54,-0c-3.017,-0 -5.216,-1.164 -6.599,-3.492c-1.382,-2.328 -2.073,-6.031 -2.073,-11.11l-0,-152.684l-25.827,-0c-3.017,-0 -5.216,-1.164 -6.599,-3.492c-1.382,-2.328 -2.073,-6.031 -2.073,-11.11l-0,-38.409c-0,-2.751 0.22,-5.079 0.66,-6.984c0.439,-1.904 1.099,-3.492 1.979,-4.761l24.319,-34.6c0.628,-0.847 1.477,-1.535 2.545,-2.064c1.068,-0.529 2.231,-0.793 3.488,-0.793l99.537,-0c3.017,-0 5.216,1.164 6.599,3.492c1.382,2.327 2.073,6.031 2.073,11.11l0,38.409c0,2.751 -0.22,5.079 -0.659,6.983c-0.44,1.905 -1.1,3.492 -1.98,4.762l-24.507,34.282c-0.503,0.847 -1.289,1.587 -2.357,2.222c-1.068,0.635 -2.231,0.953 -3.487,0.953l-1.509,-0l0,118.084c0,2.751 -0.22,5.079 -0.659,6.983c-0.44,1.905 -1.1,3.492 -1.98,4.762l-24.507,34.282c-0.503,0.847 -1.289,1.588 -2.357,2.222c-1.068,0.635 -2.231,0.953 -3.487,0.953Zm24.319,-37.775c2.387,0 4.116,-0.899 5.184,-2.698c1.068,-1.799 1.602,-4.708 1.602,-8.729l0,-155.859l27.712,0c2.388,0 4.116,-0.899 5.185,-2.698c1.068,-1.799 1.602,-4.708 1.602,-8.729l0,-38.409c0,-4.021 -0.534,-6.931 -1.602,-8.73c-1.069,-1.798 -2.797,-2.698 -5.185,-2.698l-99.537,0c-2.388,0 -4.116,0.9 -5.185,2.698c-1.068,1.799 -1.602,4.709 -1.602,8.73l-0,38.409c-0,4.021 0.534,6.93 1.602,8.729c1.069,1.799 2.797,2.698 5.185,2.698l27.712,0l-0,155.859c-0,4.021 0.534,6.93 1.602,8.729c1.068,1.799 2.797,2.698 5.184,2.698l30.541,0Zm-16.213,-28.568l-0,-168.239l-38.646,0l-0,-3.174l79.177,-0l0,3.174l-38.646,0l0,168.239l-1.885,-0Z" style="fill-rule:nonzero;"/><path d="M503.047,272.369l-29.221,-0c-3.016,-0 -5.216,-1.164 -6.598,-3.492c-1.383,-2.328 -2.074,-6.031 -2.074,-11.11l0,-205.695c0,-2.751 0.22,-5.079 0.66,-6.984c0.44,-1.904 1.1,-3.492 1.979,-4.761l24.319,-34.6c0.629,-0.847 1.477,-1.535 2.545,-2.064c1.069,-0.529 2.231,-0.793 3.488,-0.793l84.079,-0c3.017,-0 5.216,1.164 6.599,3.492c1.382,2.327 2.073,6.031 2.073,11.11l0,37.774c0,2.751 -0.22,5.079 -0.66,6.983c-0.439,1.905 -1.099,3.492 -1.979,4.762l-21.114,29.521c2.891,-0 5.027,1.164 6.41,3.492c1.382,2.328 2.073,6.031 2.073,11.11l0,38.091c0,2.752 -0.22,5.079 -0.66,6.984c-0.439,1.905 -1.099,3.492 -1.979,4.761l-24.507,34.283c-0.503,0.846 -1.289,1.587 -2.357,2.222c-1.068,0.635 -2.231,0.952 -3.488,0.952l-6.598,0l0,24.76c0,2.751 -0.22,5.079 -0.66,6.983c-0.439,1.905 -1.099,3.492 -1.979,4.762l-24.507,34.282c-0.503,0.847 -1.289,1.588 -2.357,2.222c-1.068,0.635 -2.231,0.953 -3.487,0.953Zm24.318,-37.775c2.388,0 4.116,-0.899 5.185,-2.698c1.068,-1.799 1.602,-4.708 1.602,-8.729l0,-62.534l32.802,0c2.388,0 4.116,-0.899 5.185,-2.698c1.068,-1.799 1.602,-4.709 1.602,-8.73l0,-38.091c0,-4.021 -0.534,-6.931 -1.602,-8.73c-1.069,-1.798 -2.797,-2.698 -5.185,-2.698l-32.802,0l0,-33.013l48.072,0c2.388,0 4.116,-0.899 5.185,-2.698c1.068,-1.798 1.602,-4.708 1.602,-8.729l0,-37.774c0,-4.021 -0.534,-6.931 -1.602,-8.73c-1.069,-1.798 -2.797,-2.698 -5.185,-2.698l-84.079,0c-2.388,0 -4.116,0.9 -5.184,2.698c-1.069,1.799 -1.603,4.709 -1.603,8.73l0,205.695c0,4.021 0.534,6.93 1.603,8.729c1.068,1.799 2.796,2.698 5.184,2.698l29.22,0Zm-15.458,-28.568l-0,-171.413l60.137,-0l0,3.174l-58.252,0l0,90.785l42.982,0l0,3.175l-42.982,-0l0,74.279l-1.885,-0Z" style="fill-rule:nonzero;"/><path d="M705.139,272.369l-95.956,-0c-3.017,-0 -5.216,-1.164 -6.599,-3.492c-1.382,-2.328 -2.073,-6.031 -2.073,-11.11l-0,-205.695c-0,-2.751 0.22,-5.079 0.66,-6.984c0.439,-1.904 1.099,-3.492 1.979,-4.761l24.319,-34.6c0.628,-0.847 1.477,-1.535 2.545,-2.064c1.068,-0.529 2.231,-0.793 3.488,-0.793l29.22,-0c3.016,-0 5.216,1.164 6.598,3.492c1.383,2.327 2.074,6.031 2.074,11.11l-0,129.194l0.377,-0.635l24.319,-34.6c0.628,-0.846 1.476,-1.534 2.545,-2.063c1.068,-0.529 2.231,-0.794 3.487,-0.794l27.336,0c3.016,0 5.215,1.164 6.598,3.492c1.382,2.328 2.073,6.031 2.073,11.11l0,99.991c0,2.751 -0.219,5.079 -0.659,6.983c-0.44,1.905 -1.1,3.492 -1.98,4.762l-24.507,34.282c-0.503,0.847 -1.288,1.588 -2.357,2.222c-1.068,0.635 -2.231,0.953 -3.487,0.953Zm24.319,-37.775c2.387,0 4.116,-0.899 5.184,-2.698c1.068,-1.799 1.602,-4.708 1.602,-8.729l0,-99.991c0,-4.021 -0.534,-6.93 -1.602,-8.729c-1.068,-1.799 -2.797,-2.698 -5.184,-2.698l-27.336,-0c-2.388,-0 -4.116,0.899 -5.184,2.698c-1.068,1.799 -1.602,4.708 -1.602,8.729l-0,51.424l-25.827,-0l-0,-157.128c-0,-4.021 -0.535,-6.931 -1.603,-8.73c-1.068,-1.798 -2.796,-2.698 -5.184,-2.698l-29.22,0c-2.388,0 -4.116,0.9 -5.185,2.698c-1.068,1.799 -1.602,4.709 -1.602,8.73l-0,205.695c-0,4.021 0.534,6.93 1.602,8.729c1.069,1.799 2.797,2.698 5.185,2.698l95.956,0Zm-82.195,-28.568l0,-171.413l1.886,-0l-0,168.238l65.604,0l0,-62.534l1.885,0l0,65.709l-69.375,-0Z" style="fill-rule:nonzero;"/><path d="M836.348,272.369l-80.309,-0c-3.017,-0 -5.216,-1.164 -6.598,-3.492c-1.383,-2.328 -2.074,-6.031 -2.074,-11.11l-0,-37.774c-0,-2.751 0.22,-5.079 0.66,-6.984c0.44,-1.904 1.099,-3.492 1.979,-4.761l22.811,-32.378l-0,-70.787l-16.778,-0c-3.017,-0 -5.216,-1.164 -6.598,-3.492c-1.383,-2.328 -2.074,-6.031 -2.074,-11.11l-0,-38.409c-0,-2.751 0.22,-5.079 0.66,-6.984c0.44,-1.904 1.099,-3.492 1.979,-4.761l24.319,-34.6c0.628,-0.847 1.477,-1.535 2.545,-2.064c1.068,-0.529 2.231,-0.793 3.488,-0.793l80.309,-0c3.016,-0 5.215,1.164 6.598,3.492c1.382,2.327 2.074,6.031 2.074,11.11l-0,38.409c-0,2.751 -0.22,5.079 -0.66,6.983c-0.44,1.905 -1.1,3.492 -1.98,4.762l-22.433,31.743l-0,71.422l16.401,-0c3.016,-0 5.215,1.164 6.598,3.492c1.382,2.327 2.074,6.031 2.074,11.11l-0,37.774c-0,2.751 -0.22,5.079 -0.66,6.983c-0.44,1.905 -1.1,3.492 -1.98,4.762l-24.507,34.282c-0.503,0.847 -1.288,1.588 -2.357,2.222c-1.068,0.635 -2.23,0.953 -3.487,0.953Zm-55.99,-37.775l80.309,0c2.388,0 4.116,-0.899 5.184,-2.698c1.068,-1.799 1.602,-4.708 1.602,-8.729l0,-37.774c0,-4.021 -0.534,-6.931 -1.602,-8.73c-1.068,-1.799 -2.796,-2.698 -5.184,-2.698l-18.287,0l0,-106.657l18.287,0c2.388,0 4.116,-0.899 5.184,-2.698c1.068,-1.799 1.602,-4.708 1.602,-8.729l0,-38.409c0,-4.021 -0.534,-6.931 -1.602,-8.73c-1.068,-1.798 -2.796,-2.698 -5.184,-2.698l-80.309,0c-2.388,0 -4.116,0.9 -5.185,2.698c-1.068,1.799 -1.602,4.709 -1.602,8.73l-0,38.409c-0,4.021 0.534,6.93 1.602,8.729c1.069,1.799 2.797,2.698 5.185,2.698l18.663,0l0,106.657l-18.663,0c-2.388,0 -4.116,0.899 -5.185,2.698c-1.068,1.799 -1.602,4.709 -1.602,8.73l-0,37.774c-0,4.021 0.534,6.93 1.602,8.729c1.069,1.799 2.797,2.698 5.185,2.698Zm70.129,-28.568l-59.949,-0l-0,-3.175l29.22,0l0,-165.064l-29.22,0l-0,-3.174l59.949,-0l-0,3.174l-28.844,0l0,165.064l28.844,0l-0,3.175Z" style="fill-rule:nonzero;"/><path d="M924.853,191.741l0,14.285l-1.885,-0l-0,-14.285c-0,-4.655 0.094,-9.047 0.283,-13.173c0.188,-4.127 1.037,-7.883 2.545,-11.269l22.622,-52.059l-22.622,-51.423c-1.383,-3.386 -2.2,-7.143 -2.451,-11.269c-0.251,-4.127 -0.377,-8.518 -0.377,-13.174l-0,-4.761l1.885,-0l0,4.761c0,4.444 0.126,8.677 0.377,12.698c0.251,4.02 1.006,7.512 2.262,10.475l22.623,51.424l22.433,-0l21.869,-51.424c1.256,-2.963 2.01,-6.455 2.262,-10.475c0.251,-4.021 0.377,-8.254 0.377,-12.698l-0,-4.761l1.885,-0l-0,4.761c-0,4.656 -0.126,9.047 -0.377,13.174c-0.251,4.126 -1.068,7.883 -2.451,11.269l-22.245,52.058l22.245,51.424c1.383,3.386 2.2,7.142 2.451,11.269c0.251,4.126 0.377,8.518 0.377,13.173l-0,14.285l-1.885,-0l-0,-14.285c-0,-4.444 -0.126,-8.676 -0.377,-12.697c-0.252,-4.021 -1.006,-7.513 -2.262,-10.475l-22.057,-51.424l-22.622,-0l-22.246,51.424c-1.256,2.751 -2.011,6.19 -2.262,10.316c-0.251,4.127 -0.377,8.412 -0.377,12.856Zm20.172,31.426l-0,-31.426c-0,-2.116 0.062,-4.338 0.188,-6.666c0.126,-2.328 0.628,-4.55 1.508,-6.666l8.484,-19.998c0.754,-1.905 1.445,-3.28 2.073,-4.127c0.629,-0.846 1.446,-1.269 2.451,-1.269l2.639,-0c1.006,-0 1.823,0.423 2.451,1.269c0.628,0.847 1.32,2.222 2.074,4.127l8.295,19.998c0.879,2.116 1.382,4.338 1.508,6.666c0.125,2.328 0.188,4.55 0.188,6.666l0,31.426c0,4.021 0.534,6.93 1.603,8.729c1.068,1.799 2.796,2.698 5.184,2.698l28.655,0c2.388,0 4.116,-0.899 5.184,-2.698c1.068,-1.799 1.602,-4.708 1.602,-8.729l0,-33.965c0,-9.735 -0.471,-17.036 -1.413,-21.903c-0.943,-4.867 -2.86,-10.581 -5.75,-17.141l-15.27,-34.283l15.27,-34.917c2.765,-6.56 4.65,-12.274 5.655,-17.141c1.006,-4.868 1.508,-12.169 1.508,-21.903l0,-24.442c0,-4.021 -0.534,-6.931 -1.602,-8.73c-1.068,-1.798 -2.796,-2.698 -5.184,-2.698l-28.655,0c-2.388,0 -4.116,0.9 -5.184,2.698c-1.069,1.799 -1.603,4.709 -1.603,8.73l0,21.902c0,2.117 -0.063,4.339 -0.188,6.666c-0.126,2.328 -0.629,4.55 -1.508,6.666l-8.484,19.999c-0.754,1.693 -1.445,3.015 -2.073,3.968c-0.629,0.952 -1.446,1.428 -2.451,1.428l-2.262,-0c-1.006,-0 -1.854,-0.476 -2.545,-1.428c-0.692,-0.953 -1.351,-2.275 -1.98,-3.968l-8.295,-19.999c-0.879,-2.116 -1.382,-4.338 -1.508,-6.666c-0.126,-2.327 -0.188,-4.549 -0.188,-6.666l-0,-21.902c-0,-4.021 -0.535,-6.931 -1.603,-8.73c-1.068,-1.798 -2.796,-2.698 -5.184,-2.698l-29.032,0c-2.388,0 -4.116,0.9 -5.184,2.698c-1.068,1.799 -1.603,4.709 -1.603,8.73l0,24.442c0,9.734 0.472,17.035 1.414,21.903c0.943,4.867 2.859,10.581 5.75,17.141l15.27,34.6l-15.27,34.6c-2.765,6.56 -4.65,12.274 -5.655,17.141c-1.006,4.867 -1.509,12.168 -1.509,21.903l0,33.965c0,4.021 0.535,6.93 1.603,8.729c1.068,1.799 2.796,2.698 5.184,2.698l28.655,0c2.388,0 4.116,-0.899 5.184,-2.698c1.068,-1.799 1.603,-4.708 1.603,-8.729Zm-0.754,11.745l-24.508,34.282c-0.503,0.847 -1.288,1.588 -2.356,2.222c-1.069,0.635 -2.231,0.953 -3.488,0.953l-28.655,-0c-3.016,-0 -5.216,-1.164 -6.598,-3.492c-1.383,-2.328 -2.074,-6.031 -2.074,-11.11l0,-33.965c0,-10.37 0.503,-18.094 1.508,-23.173c1.006,-5.079 3.017,-11.004 6.033,-17.776l14.516,-32.695l-14.516,-32.696c-3.016,-6.771 -5.027,-12.697 -6.033,-17.776c-1.005,-5.079 -1.508,-12.803 -1.508,-23.172l0,-24.442c0,-2.751 0.22,-5.079 0.66,-6.984c0.44,-1.904 1.1,-3.492 1.98,-4.761l24.318,-34.6c0.629,-0.847 1.477,-1.535 2.545,-2.064c1.069,-0.529 2.231,-0.793 3.488,-0.793l29.032,-0c3.016,-0 5.216,1.164 6.598,3.492c1.383,2.327 2.074,6.031 2.074,11.11l-0,21.902c-0,1.905 0.031,3.862 0.094,5.873c0.063,2.01 0.471,3.862 1.225,5.555l2.074,5.079l0,-3.809c0,-2.751 0.22,-5.079 0.66,-6.984c0.44,-1.904 1.1,-3.492 1.979,-4.761l24.319,-34.6c0.629,-0.847 1.477,-1.535 2.545,-2.064c1.069,-0.529 2.231,-0.793 3.488,-0.793l28.655,-0c3.016,-0 5.215,1.164 6.598,3.492c1.382,2.327 2.074,6.031 2.074,11.11l-0,24.442c-0,10.369 -0.503,18.093 -1.508,23.172c-1.006,5.079 -3.017,11.005 -6.033,17.776l-14.516,33.013l14.516,32.378c3.016,6.772 5.027,12.697 6.033,17.776c1.005,5.079 1.508,12.803 1.508,23.173l-0,33.965c-0,2.751 -0.22,5.079 -0.66,6.983c-0.44,1.905 -1.1,3.492 -1.98,4.762l-24.507,34.282c-0.503,0.847 -1.288,1.588 -2.357,2.222c-1.068,0.635 -2.23,0.953 -3.487,0.953l-28.655,-0c-3.016,-0 -5.216,-1.164 -6.598,-3.492c-1.383,-2.328 -2.074,-6.031 -2.074,-11.11l0,-31.426c0,-1.904 -0.031,-3.809 -0.094,-5.714c-0.063,-1.904 -0.471,-3.809 -1.225,-5.713l-2.451,-5.714l-0,13.967c-0,2.751 -0.22,5.079 -0.66,6.983c-0.44,1.905 -1.1,3.492 -1.979,4.762Z" style="fill-rule:nonzero;"/></g></svg>